<?xml version="1.0" encoding="UTF-8" standalone="no"?>
<svg
   viewBox="0 0 420.99998 421"
   version="1.1"
   id="svg22"
   sodipodi:docname="mpclogo.svg"
   width="421"
   height="421"
   inkscape:version="1.3.2 (091e20e, 2023-11-25)"
   xmlns:inkscape="http://www.inkscape.org/namespaces/inkscape"
   xmlns:sodipodi="http://sodipodi.sourceforge.net/DTD/sodipodi-0.dtd"
   xmlns="http://www.w3.org/2000/svg"
   xmlns:svg="http://www.w3.org/2000/svg">
  <sodipodi:namedview
     id="namedview22"
     pagecolor="#ffffff"
     bordercolor="#000000"
     borderopacity="0.25"
     inkscape:showpageshadow="2"
     inkscape:pageopacity="0.0"
     inkscape:pagecheckerboard="0"
     inkscape:deskcolor="#d1d1d1"
     inkscape:zoom="1"
     inkscape:cx="412"
     inkscape:cy="302"
     inkscape:window-width="1808"
     inkscape:window-height="1097"
     inkscape:window-x="1860"
     inkscape:window-y="0"
     inkscape:window-maximized="0"
     inkscape:current-layer="svg22"
     showguides="false" />
  <defs
     id="defs1067">
    <clipPath
       clipPathUnits="userSpaceOnUse"
       id="clipPath24">
      <rect
         style="fill:#00ff00;stroke-width:1.09389"
         id="rect25"
         width="1830.7383"
         height="327.75363"
         x="-478.155"
         y="-16.524931" />
    </clipPath>
    <clipPath
       clipPathUnits="userSpaceOnUse"
       id="clipPath1">
      <rect
         style="fill:#ffffff;stroke-width:1.45852;-inkscape-stroke:none"
         id="rect2"
         width="435.44412"
         height="372.23447"
         x="-27.426596"
         y="-37.47826" />
    </clipPath>
    <clipPath
       clipPathUnits="userSpaceOnUse"
       id="clipPath2">
      <rect
         style="fill:#ffffff;stroke-width:1.33333;-inkscape-stroke:none"
         id="rect3"
         width="398.0686"
         height="340.28442"
         x="410.90952"
         y="-19.261383" />
    </clipPath>
    <clipPath
       clipPathUnits="userSpaceOnUse"
       id="clipPath3">
      <rect
         style="fill:#ffffff;stroke-width:1.33333;-inkscape-stroke:none"
         id="rect4"
         width="398.0686"
         height="340.28442"
         x="410.90952"
         y="-19.261383" />
    </clipPath>
  </defs>
  <defs
     id="defs1">
    <style
       id="style1">.minerva-base-style{}</style>
  </defs>
  <rect
     x="366.66599"
     y="0"
     width="2.6500001"
     height="300"
     style="fill:#666666"
     id="rect21"
     clip-path="url(#clipPath2)"
     transform="translate(-417.982,60)" />
  <circle
     style="fill:#ffffff;stroke-width:1.39983;-inkscape-stroke:none"
     id="path1"
     cx="210.5"
     cy="210.5"
     r="210.5" />
  <g
     transform="matrix(0.91416687,0,0,0.91416687,24.001947,75.499996)"
     id="g22"
     clip-path="url(#clipPath1)">
    <style
       type="text/css"
       id="style833">
	.st0{fill-rule:evenodd;clip-rule:evenodd;fill:#D9D9D9;}
	.st1{fill-rule:evenodd;clip-rule:evenodd;fill:#6E6E6E;}
	.st2{fill:none;stroke:#000000;stroke-width:1.1755;stroke-miterlimit:10;}
	.st3{fill:none;stroke:#000000;stroke-width:2.3509;stroke-linejoin:round;stroke-miterlimit:10;}
	.st4{fill:none;stroke:#000000;stroke-width:2.3509;stroke-linecap:round;stroke-miterlimit:10;}
	.st5{fill:none;}
	.st6{enable-background:new    ;}
	.st7{fill:#B0B1B1;}
</style>
    <g
       id="Ebene_1"
       transform="translate(-3.444506,-2.22455)" />
    <g
       id="Ebene_2"
       transform="translate(-3.444506,-2.22455)">
      <g
         id="g1060">
        <g
           id="g1042"
           clip-path="url(#clipPath24)">
          <g
             id="g912">
            <g
               id="g868">
              <path
                 class="st0"
                 d="m 199.3,83.3 c -8.7,1.3 -8,-8.5 -14.4,-9.2 -5.5,-0.6 -11.4,-0.8 -15.9,-3.5 -2,-1.2 -3.9,-2.8 -6.1,-3.9 -2,-1 -5,-2.5 -6.1,-3.5 -4.2,-4.1 0,-8.2 1.9,-11.8 1.2,-2.3 2.4,-4 3.6,-5.7 1.1,-1.7 5.4,-2.5 6.4,-3.9 1.6,-2 -2.5,-7.3 -1.7,-10.3 0.1,-0.5 0.9,-0.7 0.8,-1.5 4.7,-4.5 20.3,1 13.8,7.2 -2,0 -4.1,-0.1 -4.9,1.1 7.4,-0.2 14.4,4.3 15.7,10.3 0.5,2.1 0.3,4.7 -1.1,5.3 -3.3,-0.7 -5.9,-1.8 -9.5,-1.3 -2.4,0.3 -4.2,2.2 -6.6,3 -2.4,0.7 -4.5,0.4 -6.8,0.6 4.4,3.3 9.5,-0.4 13.8,-1.1 2.8,-0.4 6.5,0.1 8.1,2.2 2.5,3.2 0.4,9.1 4.9,10.9 0,-2.2 -1.3,-4.4 -1.7,-6.8 5,1.8 6.3,-4.7 10.2,-5.1 2.9,-0.3 5.8,2.4 8.1,4 2.2,1.6 4.3,3 6.1,5 3.7,4.2 7.2,12.9 5.3,19.5 2.4,0.1 2.6,2.2 2.8,4.8 0.3,3.7 -0.4,10.3 -1.7,13.1 -1.8,3.7 -7.6,4.4 -11.2,2 -0.9,-1.9 -1.4,-4.1 -2.8,-5.5 1.5,7.3 -5.1,9 -10.4,11.4 -4.8,2.1 -10,4 -15,2.4 -3.2,-1 -5.1,-4.5 -7.4,-6.6 -3,-2.7 -6.7,-4.3 -8.1,-7.4 6.9,-1.4 10.5,-6 12.7,-12 -3,2.2 -6,6.7 -10.2,7.7 -4.8,1.1 -4.9,-2.6 -6.3,-5.1 -0.6,-1.1 -1.8,-1.8 -2.5,-2.9 -1.8,-3 -1.2,-7.5 -1,-11.2 -2.5,3.2 -3.1,9 -1.3,13.1 1.8,1.4 3.3,5.2 1,7 -5.3,-3.5 -13.3,0.3 -19.1,-1.5 -3.4,-2.5 -7.1,-5.7 -7.8,-10.7 -0.3,-2.7 1.9,-3.9 3,-6.1 2.1,-4.3 0.7,-9.8 -0.2,-14 -1.2,-5.5 -2.1,-8.7 -5.3,-12.2 -2.5,-1.8 -4.6,-3.4 -8.1,-4.2 -2,-0.5 -5,-0.6 -6.1,-1.8 -2.7,-3 0.4,-8.5 3.4,-10.1 -1.4,0.4 -2.8,0.8 -4,1.5 -2.3,-4.5 -7.4,-6.7 -13.1,-8.3 -4.1,-1.2 -10.7,-2.9 -7,-6.6 -2.4,0.6 -5.6,0.7 -7.2,-0.7 0,-1.8 2.2,-3 3.4,-3.3 5.3,-1.4 12.5,2.8 17.8,1.7 -1.2,-0.6 -2.7,-1 -3,-2.4 2.8,-3.5 18.1,-5.4 24.8,-2.8 3,1.2 5.3,3.8 3.6,7.4 2.2,-0.7 2.2,-3.5 3.2,-5.3 5.1,-0.7 8.2,2.2 9.9,5.5 4.7,-0.2 8.1,1 11,2.6 -1.9,-2.5 -4.7,-4.1 -9.1,-4.1 -1.3,-0.7 -3.2,-1.8 -2.8,-3.5 7.4,-0.6 15.1,2.5 21.2,4.1 3,0.8 6.5,1.9 6.6,5.5 -0.9,1.2 -2.3,0.4 -3.8,0.4 -4.2,0 -7.8,2.1 -8.1,6.1 -1.1,-1.7 -3,-2.7 -5.1,-3.5 2.4,2.7 7,5.9 6.3,10.5 -0.3,1.8 -5.1,4.7 -6.4,6.1 -0.7,0.7 -1,1.7 -1.7,2.4 -2.6,2.3 -6.5,0.5 -8,-1.5 -0.5,-3.2 1,-5.7 0.6,-8.7 -0.6,-4.2 -3.5,-8 -1.9,-12.3 -5.9,4.3 2.7,13.6 -1.3,18.2 -0.5,0.6 -1.7,1 -2.3,1.1 -4.6,0.6 -8.2,-3.1 -10.6,-5 3.1,7.8 14.9,7.1 19.1,13.8 -0.7,2.5 -1.6,4.3 -1.3,7 0.2,2.4 1.8,4.4 1.7,6.4 -0.2,4.5 -6.2,7.3 -4.2,12.5 1.3,-3.4 3,-8.9 8,-9.4 3.2,-0.3 6.3,1.4 9.3,2.6 2.9,1.2 6.4,2.1 9.3,2.6 3.9,0.7 8.1,0.9 10.4,2.6 2,1.5 2.8,5 5.1,7 2.6,2.3 9.1,5.1 6.8,9.8 -2.1,4.3 -8.4,5.8 -13.3,7.5 9.8,1.5 15.3,-3.5 18.7,-9.4 4.1,-2.8 12.2,-1.6 13.6,-6.8 -2.5,1.8 -6.5,3.2 -11.6,2.8 -2,-0.2 -6.8,-1.4 -6.6,-3.3 0.2,-1.8 6.5,-2.6 5.1,-5.5 -0.8,0.8 -3,2.7 -5.4,3 z M 129.2,17 c -0.2,1.1 1.7,2.5 1.9,4.6 0.3,2.4 -0.8,4.3 -2.7,5.3 -3.2,0.4 -3.6,-2.3 -5.1,-3.9 -1.8,-1.9 -3.8,-2.4 -6.4,-2.8 0.2,0.7 1.2,0.9 1.9,1.3 2.6,1.4 6.1,5.6 7.6,8.7 0.3,0.7 0.4,1.8 0.4,2.9 2.3,-3 8,-5.5 13.6,-3.1 -1.3,-2 -4.2,-2.4 -8,-2.6 1.3,-4.6 -0.5,-8.2 -3.2,-10.4 z m 79.3,45.9 c -0.3,0 -0.3,0.2 -0.6,0.2 -1,3.9 -4,5.9 -7.4,7.5 7,1 11.7,4.3 15.9,8.1 -1.5,-4.2 -4.9,-6.8 -9.1,-8.8 1.5,-1.8 2,-4.6 1.2,-7 z"
                 id="path836" />
              <path
                 class="st1"
                 d="m 129.2,17 c -0.2,1.1 1.7,2.5 1.9,4.6 0.3,2.4 -0.8,4.3 -2.7,5.3 -3.2,0.4 -3.6,-2.3 -5.1,-3.9 -1.8,-1.9 -3.8,-2.4 -6.4,-2.8 0.2,0.7 1.2,0.9 1.9,1.3 2.6,1.4 6.1,5.6 7.6,8.7 0.3,0.7 0.4,1.8 0.4,2.9 2.3,-3 8,-5.5 13.6,-3.1 -1.3,-2 -4.2,-2.4 -8,-2.6 1.3,-4.6 -0.5,-8.2 -3.2,-10.4 z"
                 id="path838" />
              <path
                 class="st0"
                 d="m 178,22.6 c 1.5,4.4 3.1,8.7 9.5,8.3 -1.6,1.5 -2.7,3.7 -1.9,6.6 0.5,0.5 1.1,1.1 1.3,1.8 1.8,1.4 3.9,2.3 5.5,4 1,1.1 1.5,2.7 3,3.5 3.6,1.9 9.1,0.2 12.7,3.1 -3.2,-0.4 -7.9,-1.6 -11.4,0.4 -1.6,0.9 -3.7,3.3 -3.2,5.7 0.3,1.3 1.7,2.4 3,2.4 2.2,0 3.4,-3.2 6.1,-3.7 6.7,-1.2 13.6,5.5 16.9,9 1.6,0.1 2.6,-0.6 3.2,-1.5 0.1,-3.7 -3,-7.1 -5.3,-9.8 -2.8,-3.2 -5.2,-6 -10,-6.6 -2,-4.4 -6.7,-6.2 -11.6,-7.9 3.8,-0.6 7.2,1 9.5,2.8 1.8,1.4 3.3,4.7 6.6,3.5 -0.1,-1.9 -1.1,-3.2 -2.7,-4.4 -4.1,-3.3 -9.2,-5.5 -14.8,-9 -2.2,-1.4 -4.6,-3.3 -7,-5 -2.7,-1.9 -6.4,-3.9 -9.4,-3.2 z"
                 id="path840" />
              <path
                 class="st0"
                 d="m 68.5,79.4 c -2.1,-6 -3.1,-12.4 -3.6,-19 -0.5,-7.3 0.8,-15.8 7.4,-16.2 0,-0.2 -0.2,-0.2 -0.2,-0.4 -1.8,-0.5 -3.8,-0.2 -5.1,0.6 -2,1.1 -2.9,4 -4.4,4.2 -0.9,0.2 -2.1,-0.6 -3.2,-0.7 -3.5,-0.4 -6.8,0.6 -7.8,-1.7 0,-0.5 -0.1,-1.9 0.2,-2.8 0.6,-1.7 4,-4.3 5.9,-6.1 2.1,-2 4.3,-4.9 6.8,-5.1 4,-0.4 5.6,3.5 4.7,8.1 1.4,-1.9 2.1,-4.1 1.9,-6.6 -0.2,-2.2 -2.1,-4 -1.5,-6.1 4.2,-2.1 6.5,3 9.7,3.3 3.5,0.4 6.9,-3.2 8.1,-5.1 -1.7,0.6 -3,2.2 -5.3,2.8 -4,0.9 -10,-1.9 -5.5,-4.6 5.1,-3 17.4,-1.9 19.7,2.4 0.1,0.6 -0.2,1.7 0.2,2 5,0.3 8.4,1.3 12.5,3.5 2.3,1.2 6.7,3.5 6.4,6.6 -0.2,2.7 -5.2,3.2 -5.1,5.9 0.1,1.8 3.8,3.2 6.3,3.7 3.8,0.8 7.1,1.2 9.3,2.4 2.6,1.5 4.8,5.8 6.4,9.4 1.6,3.5 3.4,7.7 3.8,11 0.5,5.1 -1,8 -3.8,10.9 0.8,1.2 4.3,7.2 1.1,7.9 -0.7,0.2 -2.6,-1.2 -3.8,-2 -1.2,-0.8 -2.8,-2 -3.8,-2.6 -2.9,-1.9 -6.1,-3 -8.3,-4.4 -1.5,-1 -4.4,-3.9 -4.5,-5.9 -0.2,-3 2.1,-5.6 1.9,-8.1 -0.1,-1.7 -0.7,-3 -2.5,-4.4 1,2.4 0.9,5.4 0,7.7 -2.1,5.5 -7.2,8.1 -14.4,7.4 C 95.7,77.2 92.6,76 90.6,73.9 87.1,70.1 86.3,64 84.3,59.7 c -1.5,-1.6 -2.3,-4 -5.1,-4.4 2.2,2.3 3.9,4.2 4.9,7.4 0.7,2.2 0,4.7 0.6,7 1.2,4.4 7,5.2 8.1,9.6 -2.3,1.9 -6.2,5.5 -4,9.4 -0.3,-1.4 1,-3 1.5,-4.2 1.6,-1.5 3.7,-2.8 6.3,-3.1 4.1,-0.4 8.6,-0.8 11.9,-0.6 4.1,0.3 6.9,2 10.2,3.9 5.7,3.3 10.7,8 15.9,11.6 1.2,0.8 2.5,1.3 3.6,2 3.9,2.6 6.6,9 6.8,13.8 0.1,2.9 -0.9,7.8 -3.2,7.9 -2.5,0.1 -4.1,-4.8 -5.3,-5.9 -0.7,4.4 5.4,6.4 5.1,10.1 -0.2,2.7 -3.3,4.5 -5.9,5.7 3.4,1.1 4.4,-2.8 7,-3.7 2.5,-0.8 6.6,1.2 8.7,3 1.1,0.9 1.7,2.4 2.7,2.8 -0.4,-2.4 -3,-4.9 -5.3,-6.1 -1.7,-0.9 -3.9,-1.2 -4.4,-2.2 -1.1,-2.3 1.7,-5 2.5,-7.2 2,-6 -1.9,-10.9 -2.3,-17.3 1.6,-1 3.9,-1.3 6.1,-1.5 9.3,-0.6 13.8,3.9 18.9,8.7 3.7,3.4 7.5,5.6 9.9,8.5 2,2.4 3.7,6.2 3.2,10.3 -0.9,8.4 -7.1,13.6 -14,16.6 3.3,1.4 6,-1.8 8.7,-0.9 0.3,3.3 -2.7,5.5 -5.5,7.2 -5.4,3.4 -13.5,4.9 -20.7,5.1 -14.4,0.6 -27.4,-5.1 -37.9,-9.4 3.5,-2.4 6.7,-5.2 8.5,-9.2 4.5,0.3 10.1,1.2 11.7,5 -0.4,5.2 1.4,9.1 4.5,10.3 -1.6,-2.4 -3.9,-6.1 -1.9,-9.2 1.9,-2.8 7.1,-1.6 9.7,-0.2 -2.4,-3.8 -8,-3.8 -12.9,-5.3 -2.5,-0.8 -5.8,-1.5 -6.6,-3.5 -0.8,-1.8 -0.2,-4.6 -1,-6.6 -0.4,-1.2 -1.2,-2.2 -2.3,-2.8 1.5,2.8 2,6.5 0,8.5 -2.1,2 -7.3,2.6 -9.9,0.9 -1.9,-1.3 -1.9,-4.9 -4.2,-5.5 -0.4,1 1.2,2.3 0.8,4.2 -0.3,1.2 -1.8,2.1 -2.5,2.4 -3.8,1.4 -8.5,-1.5 -11.6,-2 -4.5,-0.8 -7.2,2.5 -10.6,4 -4.8,2.2 -17.9,3.4 -23.1,0.9 -7.5,-3.5 -9.1,-13.2 -5.1,-21.2 3.2,-1 5.5,0.1 8.5,-0.2 4.8,-0.5 8.3,-3.9 12.5,-3.5 5.8,0.6 9.7,6.2 16.3,4 -7.1,-2.4 -16.6,-4.4 -15.2,-13.4 2.9,-0.3 5.7,2.2 8.7,0.6 C 77.5,98.7 72.2,89.6 68.5,79.4 Z m 33.4,-41.5 c -3.6,-1 -5.5,2.5 -8.3,2.8 -2.3,0.2 -4.7,-1.4 -7.4,-1.5 -3.1,-0.1 -5.8,0.4 -8.9,-0.4 3.5,3.4 10.3,0.5 13.4,3.5 2.3,2.2 3.9,5.7 6.3,8.3 1.3,1.4 3.2,2.3 4.2,3.5 2.3,2.8 3.9,8.5 1.7,12.5 4.9,-0.5 1.1,-7.2 3.2,-10.3 0.8,-1.2 4.4,-1.5 6.4,-1.3 3.1,0.3 6.3,2 8.3,3.1 -0.2,-1.6 -2.1,-2.6 -3.4,-3.3 -2,-1.1 -5.2,-2.2 -8.1,-2 -2,0.1 -4.4,1.5 -6.1,0.7 -1.8,-0.9 -3.7,-2.7 -4.9,-4.4 -1.1,-1.6 -2.9,-4.2 -2.7,-6.4 0.3,-3.1 3.9,-3.5 6.3,-4.8 z m 31.8,63.1 c -5.7,0 -10.5,3.9 -15.7,3.7 -1.9,-0.1 -3.8,-0.9 -5.7,-1.3 -4.9,-1 -9.7,-0.8 -15,-0.4 5.1,1.2 12,1.5 16.7,3.3 1.2,0.5 4.3,1.8 4,4.1 -0.4,2.8 -6.8,3.8 -9.5,4.8 -2.4,0.9 -4.2,2.7 -5.1,4.2 3.2,-0.8 8.9,-5.2 12.3,-2.8 2.5,1.8 1.5,6.4 3.2,9.2 0.3,-1.6 0.3,-3.3 0.2,-4.8 -0.3,-6.1 0.2,-9.3 3.4,-12.7 2.7,-2.9 6.1,-5.1 10.8,-7 0.4,0.1 0.4,-0.1 0.4,-0.3 z m 19.9,4.9 c -0.9,1.3 0.4,4 1.3,5.2 2.6,3.1 6.2,4.6 7,9.9 0.9,5.7 2,10.4 0,15.3 -1.3,3.4 -4.5,7 -8.3,8.1 -1.6,0.5 -3.6,-0.1 -5.1,1.1 3.3,0.8 5.4,-1 7.8,-0.2 2.3,0.8 2.1,4.2 4.4,4.8 -3.1,-5.5 2,-10.8 4.2,-15.5 0.5,-1.2 1.3,-2.3 1.5,-3.1 0.2,-0.8 -0.2,-1.5 0,-2 1.2,-3.2 5.7,-4.8 9.9,-3.9 -2.9,-2.5 -7,-0.7 -10.4,-0.7 -2.2,-3.7 -1.3,-8.7 -4.4,-11 -3,-2.3 -7.2,-3.6 -7.9,-8 z M 70.8,122 c 4,0 7.6,3.2 3,5.5 1.8,0.4 2.8,-1.5 4.9,-1.8 1.3,-0.2 2.5,0.2 3.8,0.4 3.5,0.3 6,-0.7 8.1,-2.2 -0.8,-0.5 -2.2,0.6 -3.2,0.7 -5.9,0.8 -10.2,-4.7 -16.6,-2.6 z"
                 id="path842" />
              <path
                 class="st1"
                 d="m 101.9,37.9 c -3.6,-1 -5.5,2.5 -8.3,2.8 -2.3,0.2 -4.7,-1.4 -7.4,-1.5 -3.1,-0.1 -5.8,0.4 -8.9,-0.4 3.5,3.4 10.3,0.5 13.4,3.5 2.3,2.2 3.9,5.7 6.3,8.3 1.3,1.4 3.2,2.3 4.2,3.5 2.3,2.8 3.9,8.5 1.7,12.5 4.9,-0.5 1.1,-7.2 3.2,-10.3 0.8,-1.2 4.4,-1.5 6.4,-1.3 3.1,0.3 6.3,2 8.3,3.1 -0.2,-1.6 -2.1,-2.6 -3.4,-3.3 -2,-1.1 -5.2,-2.2 -8.1,-2 -2,0.1 -4.4,1.5 -6.1,0.7 -1.8,-0.9 -3.7,-2.7 -4.9,-4.4 -1.1,-1.6 -2.9,-4.2 -2.7,-6.4 0.3,-3.1 3.9,-3.5 6.3,-4.8 z"
                 id="path844" />
              <path
                 class="st0"
                 d="m 32.7,66 c 1.6,1.2 4.5,0 6.3,1.1 0.7,0.4 0.4,1.1 1.3,1.3 0.7,1.9 0.7,4.7 2.3,6.4 2.1,2.3 5.6,2.5 8,0.2 0.3,-1.5 0.8,-3.2 -0.2,-4.6 -0.7,-1 -2.2,-1.1 -3.4,-2 -3,-2.4 -1.9,-7.3 0.4,-10.1 -1.9,3.6 -0.8,10.6 4.7,10.3 0.4,-3.3 1.6,-5.8 4.4,-6.8 -0.3,1.1 -1.4,1.7 -1.9,3 -1.7,4.1 0.5,11.2 -3.4,14.2 -1.7,0.5 -2.7,1.5 -4.9,1.1 -5.9,-0.9 -6.1,-10.7 -13.4,-10.5 -1.4,0 -2.9,0.7 -3.8,1.5 -5.2,4.4 -3,14.8 3,17.7 -5.5,2.3 -4.7,9.8 -1.1,13.6 -3.1,2.4 -3.1,8.4 -0.8,11.6 -2.6,-1.7 -3.6,-4.9 -3.6,-9.2 -3.9,0.7 -7.2,3.7 -7.8,7.9 -0.3,2.6 -0.1,5.7 1.1,7.9 2.7,-0.7 3.4,-3.3 6.8,-3.3 -3.2,2.1 -6.4,6 -5.1,9.4 0.9,2.4 4.1,4.2 6.6,4 0.8,0 1.8,-0.8 2.7,-0.7 1.3,0.1 1.6,1.2 2.8,1.8 3.3,1.8 6.1,1 9.5,-0.2 -0.8,1.6 -2.9,2 -4.5,2.8 0.4,2.7 3.1,3.3 4.5,5 -3.6,-0.7 -6.4,-2.3 -7.4,-5.5 -3.4,-0.6 -7.7,-4.1 -9.9,-0.6 0.2,2.9 2.1,4.5 4.3,6.1 6.1,4.4 17.8,4.7 25.2,0 3.7,-4.9 -2.1,-8.4 -2.3,-13.4 -8,3.6 -18.2,-0.9 -20.5,-7.9 2.7,4.3 13.6,10.3 19.9,5.1 1.9,-1.5 2.6,-5.8 1.5,-9.2 -2.4,-1.1 -5.2,-2 -6.4,-4.2 7.8,4.4 20.8,2.8 29.9,-1.5 2.1,-8 -5.4,-12.7 -8,-18.2 -0.8,-1.8 -1.4,-4.7 -3.2,-4.6 -1.5,0.1 -3.4,4.2 -4.7,5.5 -3,2.8 -7.8,4.7 -12.7,4.4 -0.4,4.4 2.6,6.9 4.5,9.6 -1.4,-0.6 -2.8,-1.6 -4,-3.1 -1.6,-2 -2.1,-5 -3.6,-6.6 -1.3,-1.3 -5.6,-4.4 -6.4,-0.9 -0.2,0.9 0,3 0,3.7 0.5,5.6 3,12.2 5.3,16.6 -4.1,-2.4 -6.6,-9 -7.6,-15.5 -0.9,-5.9 0,-11.6 1.9,-16.2 1.4,6.9 4.3,10.9 10.4,11.2 3.2,0.2 5.9,-1 8.1,-2.8 2.7,-2.1 5.7,-5.9 6.6,-9.9 1.6,-7.1 -2,-15.7 -2.5,-21.9 -0.4,-4.9 1.4,-10.2 -4.4,-9.9 -2,0.1 -4.5,1.3 -7.2,1.8 -5,1.1 -8.5,2.2 -11.4,5 -1.1,1 -2.2,2.5 -3.6,4.2 -0.8,1.2 -3.3,3.6 -2.3,5.3 z"
                 id="path846" />
              <path
                 class="st1"
                 d="m 208.5,62.9 c -0.3,0 -0.3,0.2 -0.6,0.2 -1,3.9 -4,5.9 -7.4,7.5 7,1 11.7,4.3 15.9,8.1 -1.5,-4.2 -4.9,-6.8 -9.1,-8.8 1.5,-1.8 2,-4.6 1.2,-7 z"
                 id="path848" />
              <path
                 class="st0"
                 d="m 227.7,88.8 c 2.7,-8.1 0.4,-18.7 -3,-23.7 -2.6,0 -1.2,4 -0.8,5.7 1.6,6 3.6,11.4 3.8,18 z"
                 id="path850" />
              <path
                 class="st0"
                 d="m 20.8,103.9 c 3,-0.3 5.2,-2.1 7.6,-2.4 -2.4,-3.5 -3,-10.2 0.2,-13.1 -1.5,-1.1 -2.4,-3.7 -4.4,-3.3 -2.4,0.5 -3.8,9.7 -4.4,14 -0.2,2.2 -0.2,4 1,4.8 z"
                 id="path852" />
              <path
                 class="st1"
                 d="m 133.7,101 c -5.7,0 -10.5,3.9 -15.7,3.7 -1.9,-0.1 -3.8,-0.9 -5.7,-1.3 -4.9,-1 -9.7,-0.8 -15,-0.4 5.1,1.2 12,1.5 16.7,3.3 1.2,0.5 4.3,1.8 4,4.1 -0.4,2.8 -6.8,3.8 -9.5,4.8 -2.4,0.9 -4.2,2.7 -5.1,4.2 3.2,-0.8 8.9,-5.2 12.3,-2.8 2.5,1.8 1.5,6.4 3.2,9.2 0.3,-1.6 0.3,-3.3 0.2,-4.8 -0.3,-6.1 0.2,-9.3 3.4,-12.7 2.7,-2.9 6.1,-5.1 10.8,-7 0.4,0.1 0.4,-0.1 0.4,-0.3 z"
                 id="path854" />
              <path
                 class="st1"
                 d="m 153.6,105.9 c -0.9,1.3 0.4,4 1.3,5.2 2.6,3.1 6.2,4.6 7,9.9 0.9,5.7 2,10.4 0,15.3 -1.3,3.4 -4.5,7 -8.3,8.1 -1.6,0.5 -3.6,-0.1 -5.1,1.1 3.3,0.8 5.4,-1 7.8,-0.2 2.3,0.8 2.1,4.2 4.4,4.8 -3.1,-5.5 2,-10.8 4.2,-15.5 0.5,-1.2 1.3,-2.3 1.5,-3.1 0.2,-0.8 -0.2,-1.5 0,-2 1.2,-3.2 5.7,-4.8 9.9,-3.9 -2.9,-2.5 -7,-0.7 -10.4,-0.7 -2.2,-3.7 -1.3,-8.7 -4.4,-11 -3,-2.3 -7.2,-3.6 -7.9,-8 z"
                 id="path856" />
              <path
                 class="st0"
                 d="m 222,107.6 c -4.1,1.3 -8.4,-0.7 -12.5,0.9 -1.7,1.5 -4.2,2.3 -5.5,4.2 4,0.1 9.1,1.8 13.1,0.2 2.4,-0.9 3.4,-3.5 4.9,-5.3 z"
                 id="path858" />
              <path
                 class="st0"
                 d="m 206.4,116.1 c -0.4,-1.7 -2.2,-2 -3.4,-2.9 -2.7,3 -9.4,2 -12.7,2.4 -1,0.1 -2.4,0.7 -2.5,1.3 -0.2,1.2 2.4,2 4,2.2 2.4,0.3 5.3,0.2 7.6,-0.2 2.5,-0.5 5.6,-1.3 7,-2.8 z"
                 id="path860" />
              <path
                 class="st1"
                 d="m 70.8,122 c 4,0 7.6,3.2 3,5.5 1.8,0.4 2.8,-1.5 4.9,-1.8 1.3,-0.2 2.5,0.2 3.8,0.4 3.5,0.3 6,-0.7 8.1,-2.2 -0.8,-0.5 -2.2,0.6 -3.2,0.7 -5.9,0.8 -10.2,-4.7 -16.6,-2.6 z"
                 id="path862" />
              <path
                 class="st0"
                 d="m 111,142.6 c 2.8,-1.5 7.4,-4.5 5.1,-8.7 -5.6,-1.4 -9.6,2.9 -15.3,0.9 -2.5,-0.9 -4.4,-3.5 -7.2,-2.6 -1.2,0.4 -1.9,1.4 -3.2,2.4 -1.3,0.9 -3,1.5 -3,2.8 0,2.2 5.5,3.5 7.6,3.9 5.7,1 12.1,-0.4 16,1.3 z"
                 id="path864" />
              <path
                 class="st1"
                 d="m 184.1,131.7 c -0.2,2.1 0.4,4.7 0.2,7.2 -0.8,7.6 -6.9,11.5 -13.3,14 -5.2,2 -11,3.7 -17,4.2 -14.2,1.3 -24.8,-3.3 -36,-6.4 -2.8,-0.8 -5.4,-1.5 -8,-2.8 -7.5,-3.8 -18,-3.1 -27.7,-4.8 -6.1,-1.1 -12.2,-2.7 -18.7,-1.5 -3,0.5 -5.8,1.4 -8.5,2.2 -2.8,0.8 -5.5,2 -8.3,2.6 -6.1,1.2 -14.5,-0.8 -17.4,-2.8 -1.8,-1.2 -3.4,-3.2 -4.9,-5 C 15.3,127.9 12.1,110.1 16.5,93.3 21,76.2 29.8,62.1 39.8,50 44.7,44 50.5,38.6 56.7,33.2 68.9,22.6 84,15.6 103.2,12.5 c 10,-1.6 21.2,-1.9 29.2,-1.7 4.3,0.1 9,0.3 13.3,0.7 13,1.5 23.7,4 34.7,7.4 6.9,2.1 12.7,5.7 18.4,9.6 5.7,3.9 10.7,7.9 15.3,12.5 2.1,2.2 4,5.1 6.1,7.7 4.2,5.3 7.4,11.1 9.5,18.2 2.3,7.7 3,15 1.5,23.4 -1.4,7.9 -2.8,14.9 -7,20.2 -5.1,6.4 -11.6,9.7 -21,11.8 -5.2,1.2 -10.4,2 -16.5,1.5 -1,3.1 -2.4,5 -2.6,7.9 z M 204.9,80 c 1.4,3 -4.9,3.7 -5.1,5.5 -0.2,1.9 4.6,3.2 6.6,3.3 5.1,0.4 9.1,-1 11.6,-2.8 -1.5,5.2 -9.6,4.1 -13.6,6.8 -3.4,5.9 -8.9,10.9 -18.7,9.4 4.9,-1.7 11.2,-3.3 13.3,-7.5 2.3,-4.7 -4.2,-7.5 -6.8,-9.8 -2.3,-2 -3.1,-5.5 -5.1,-7 -2.3,-1.7 -6.5,-1.9 -10.4,-2.6 -2.8,-0.5 -6.3,-1.4 -9.3,-2.6 -3,-1.2 -6.1,-2.9 -9.3,-2.6 -4.9,0.5 -6.7,6 -8,9.4 -2.1,-5.3 4,-8 4.2,-12.5 0.1,-2 -1.5,-4.1 -1.7,-6.4 -0.2,-2.7 0.6,-4.5 1.3,-7 -4.2,-6.7 -16,-6 -19.1,-13.8 2.4,1.9 6,5.5 10.6,5 0.6,-0.1 1.8,-0.5 2.3,-1.1 4,-4.6 -4.6,-13.9 1.3,-18.2 -1.6,4.3 1.3,8.2 1.9,12.3 0.4,3 -1,5.4 -0.6,8.7 1.5,2 5.3,3.8 8,1.5 0.7,-0.6 1,-1.7 1.7,-2.4 1.3,-1.4 6.1,-4.3 6.4,-6.1 0.8,-4.6 -3.9,-7.8 -6.3,-10.5 2.1,0.8 4,1.8 5.1,3.5 0.3,-4 4,-6.1 8.1,-6.1 1.4,0 2.9,0.8 3.8,-0.4 -0.2,-3.7 -3.6,-4.7 -6.6,-5.5 -6.1,-1.6 -13.8,-4.6 -21.2,-4.1 -0.3,1.7 1.6,2.8 2.8,3.5 4.4,0 7.2,1.6 9.1,4.1 -2.9,-1.6 -6.3,-2.8 -11,-2.6 -1.7,-3.3 -4.7,-6.2 -9.9,-5.5 -1.1,1.8 -1,4.6 -3.2,5.3 1.7,-3.6 -0.6,-6.2 -3.6,-7.4 -6.7,-2.6 -22,-0.7 -24.8,2.8 0.4,1.4 1.9,1.8 3,2.4 -5.3,1.1 -12.5,-3.1 -17.8,-1.7 -1.2,0.3 -3.4,1.5 -3.4,3.3 1.6,1.5 4.8,1.4 7.2,0.7 -3.7,3.7 2.9,5.5 7,6.6 5.7,1.6 10.7,3.7 13.1,8.3 1.2,-0.6 2.6,-1.1 4,-1.5 -3,1.7 -6.1,7.1 -3.4,10.1 1.1,1.2 4.1,1.4 6.1,1.8 3.5,0.9 5.6,2.4 8.1,4.2 3.2,3.4 4.1,6.7 5.3,12.2 0.9,4.2 2.3,9.7 0.2,14 -1.1,2.2 -3.4,3.4 -3,6.1 0.6,5 4.3,8.2 7.8,10.7 5.8,1.8 13.8,-2.1 19.1,1.5 2.3,-1.8 0.9,-5.6 -1,-7 -1.8,-4 -1.2,-9.9 1.3,-13.1 -0.3,3.7 -0.8,8.2 1,11.2 0.6,1.1 1.9,1.9 2.5,2.9 1.4,2.5 1.5,6.3 6.3,5.1 4.3,-1 7.2,-5.5 10.2,-7.7 -2.2,6 -5.8,10.6 -12.7,12 1.4,3 5.2,4.6 8.1,7.4 2.2,2.1 4.2,5.6 7.4,6.6 4.9,1.6 10.1,-0.2 15,-2.4 5.3,-2.4 11.9,-4.2 10.4,-11.4 1.4,1.4 1.9,3.7 2.8,5.5 3.6,2.4 9.4,1.7 11.2,-2 1.3,-2.7 2,-9.4 1.7,-13.1 -0.2,-2.6 -0.4,-4.7 -2.8,-4.8 1.9,-6.6 -1.6,-15.3 -5.3,-19.5 -1.8,-2 -3.8,-3.4 -6.1,-5 -2.4,-1.7 -5.2,-4.4 -8.1,-4 -4,0.4 -5.3,6.9 -10.2,5.1 0.4,2.4 1.7,4.6 1.7,6.8 -4.5,-1.7 -2.4,-7.7 -4.9,-10.9 -1.6,-2.1 -5.3,-2.6 -8.1,-2.2 -4.3,0.7 -9.4,4.4 -13.8,1.1 2.4,-0.1 4.4,0.2 6.8,-0.6 2.5,-0.7 4.2,-2.6 6.6,-3 3.6,-0.5 6.2,0.6 9.5,1.3 1.4,-0.7 1.6,-3.2 1.1,-5.3 -1.4,-6 -8.4,-10.5 -15.7,-10.3 0.8,-1.2 2.9,-1.1 4.9,-1.1 6.5,-6.2 -9.1,-11.7 -13.8,-7.2 0.1,0.8 -0.6,1 -0.8,1.5 -0.8,3 3.4,8.3 1.7,10.3 -1.1,1.3 -5.4,2.2 -6.4,3.9 -1.2,1.7 -2.4,3.5 -3.6,5.7 -1.9,3.6 -6.1,7.7 -1.9,11.8 1,1 4,2.5 6.1,3.5 2.2,1.1 4,2.6 6.1,3.9 4.5,2.7 10.4,2.9 15.9,3.5 6.4,0.7 5.7,10.5 14.4,9.2 2.2,0 4.4,-1.9 5.4,-3 z M 178,22.6 c 1.5,4.4 3.1,8.7 9.5,8.3 -1.6,1.5 -2.7,3.7 -1.9,6.6 0.5,0.5 1.1,1.1 1.3,1.8 1.8,1.4 3.9,2.3 5.5,4 1,1.1 1.5,2.7 3,3.5 3.6,1.9 9.1,0.2 12.7,3.1 -3.2,-0.4 -7.9,-1.6 -11.4,0.4 -1.6,0.9 -3.7,3.3 -3.2,5.7 0.3,1.3 1.7,2.4 3,2.4 2.2,0 3.4,-3.2 6.1,-3.7 6.7,-1.2 13.6,5.5 16.9,9 1.6,0.1 2.6,-0.6 3.2,-1.5 0.1,-3.7 -3,-7.1 -5.3,-9.8 -2.8,-3.2 -5.2,-6 -10,-6.6 -2,-4.4 -6.7,-6.2 -11.6,-7.9 3.8,-0.6 7.2,1 9.5,2.8 1.8,1.4 3.3,4.7 6.6,3.5 -0.1,-1.9 -1.1,-3.2 -2.7,-4.4 -4.1,-3.3 -9.2,-5.5 -14.8,-9 -2.2,-1.4 -4.6,-3.3 -7,-5 -2.7,-1.9 -6.4,-3.9 -9.4,-3.2 z m -89.8,79.3 c -3,1.6 -5.8,-0.9 -8.7,-0.6 -1.5,9 8.1,11 15.2,13.4 -6.6,2.1 -10.5,-3.5 -16.3,-4 -4.2,-0.4 -7.7,3 -12.5,3.5 -3,0.3 -5.3,-0.8 -8.5,0.2 -4,7.9 -2.3,17.7 5.1,21.2 5.2,2.4 18.3,1.3 23.1,-0.9 3.4,-1.6 6.1,-4.8 10.6,-4 3,0.5 7.7,3.4 11.6,2 0.7,-0.3 2.2,-1.2 2.5,-2.4 0.5,-2 -1.1,-3.3 -0.8,-4.2 2.3,0.6 2.3,4.2 4.2,5.5 2.6,1.7 7.8,1.1 9.9,-0.9 2,-2 1.5,-5.7 0,-8.5 1.1,0.6 1.8,1.6 2.3,2.8 0.7,2 0.2,4.8 1,6.6 0.9,2 4.1,2.7 6.6,3.5 4.9,1.5 10.4,1.6 12.9,5.3 -2.6,-1.4 -7.8,-2.6 -9.7,0.2 -2,3.1 0.3,6.8 1.9,9.2 -3.1,-1.2 -4.9,-5.1 -4.5,-10.3 -1.6,-3.7 -7.2,-4.6 -11.7,-5 -1.9,4 -5,6.8 -8.5,9.2 10.4,4.3 23.5,10 37.9,9.4 7.1,-0.3 15.2,-1.8 20.7,-5.1 2.8,-1.7 5.8,-3.9 5.5,-7.2 -2.7,-0.8 -5.4,2.3 -8.7,0.9 6.9,-3 13.1,-8.2 14,-16.6 0.4,-4.1 -1.3,-8 -3.2,-10.3 -2.4,-2.9 -6.2,-5 -9.9,-8.5 -5.1,-4.8 -9.7,-9.3 -18.9,-8.7 -2.2,0.2 -4.4,0.5 -6.1,1.5 0.4,6.4 4.3,11.3 2.3,17.3 -0.8,2.2 -3.6,4.9 -2.5,7.2 0.5,1 2.7,1.3 4.4,2.2 2.3,1.2 4.9,3.6 5.3,6.1 -0.9,-0.4 -1.6,-1.9 -2.7,-2.8 -2.1,-1.7 -6.2,-3.8 -8.7,-3 -2.6,0.9 -3.6,4.8 -7,3.7 2.5,-1.2 5.6,-3 5.9,-5.7 0.3,-3.8 -5.8,-5.7 -5.1,-10.1 1.2,1 2.8,6 5.3,5.9 2.3,-0.1 3.3,-5 3.2,-7.9 -0.2,-4.9 -2.9,-11.3 -6.8,-13.8 -1.1,-0.7 -2.4,-1.2 -3.6,-2 C 130,92.6 125,87.9 119.3,84.6 116,82.7 113.2,81 109.1,80.7 c -3.3,-0.2 -7.9,0.1 -11.9,0.6 -2.6,0.3 -4.6,1.7 -6.3,3.1 -0.5,1.3 -1.8,2.8 -1.5,4.2 -2.2,-3.9 1.7,-7.5 4,-9.4 -1.1,-4.3 -7,-5.2 -8.1,-9.6 -0.6,-2.3 0.1,-4.8 -0.6,-7 -1,-3.2 -2.7,-5 -4.9,-7.4 2.8,0.4 3.6,2.8 5.1,4.4 1.9,4.3 2.7,10.4 6.3,14.2 1.9,2.1 5.1,3.3 7.4,3.5 7.2,0.7 12.2,-1.9 14.4,-7.4 0.9,-2.3 1,-5.4 0,-7.7 1.8,1.5 2.4,2.8 2.5,4.4 0.2,2.5 -2.1,5.1 -1.9,8.1 0.2,2 3,4.9 4.5,5.9 2.3,1.4 5.4,2.6 8.3,4.4 1,0.6 2.6,1.8 3.8,2.6 1.2,0.8 3.1,2.2 3.8,2 3.1,-0.8 -0.3,-6.7 -1.1,-7.9 2.8,-2.8 4.3,-5.7 3.8,-10.9 -0.4,-3.4 -2.1,-7.5 -3.8,-11 -1.7,-3.6 -3.8,-7.9 -6.4,-9.4 -2.1,-1.2 -5.5,-1.6 -9.3,-2.4 -2.5,-0.5 -6.2,-1.8 -6.3,-3.7 -0.1,-2.6 4.9,-3.2 5.1,-5.9 0.3,-3.1 -4.2,-5.4 -6.4,-6.6 -4.1,-2.2 -7.5,-3.2 -12.5,-3.5 C 96.7,28 97,26.9 96.9,26.3 94.6,22 82.3,20.9 77.2,23.9 c -4.5,2.7 1.5,5.5 5.5,4.6 2.3,-0.5 3.6,-2.1 5.3,-2.8 -1.2,2 -4.6,5.5 -8.1,5.1 -3.2,-0.3 -5.5,-5.4 -9.7,-3.3 -0.5,2 1.3,3.8 1.5,6.1 0.2,2.5 -0.5,4.8 -1.9,6.6 0.9,-4.6 -0.7,-8.5 -4.7,-8.1 -2.5,0.3 -4.7,3.2 -6.8,5.1 -1.9,1.8 -5.3,4.4 -5.9,6.1 -0.3,0.8 -0.1,2.2 -0.2,2.8 1,2.3 4.3,1.2 7.8,1.7 1.1,0.1 2.4,0.9 3.2,0.7 1.5,-0.3 2.3,-3.1 4.4,-4.2 1.3,-0.7 3.3,-1 5.1,-0.6 0,0.2 0.2,0.2 0.2,0.4 -6.6,0.4 -7.9,8.9 -7.4,16.2 0.5,6.5 1.5,13 3.6,19 3.1,10.3 8.4,19.4 19.1,22.6 z M 32.7,66 c 1.6,1.2 4.5,0 6.3,1.1 0.7,0.4 0.4,1.1 1.3,1.3 0.7,1.9 0.7,4.7 2.3,6.4 2.1,2.3 5.6,2.5 8,0.2 0.3,-1.5 0.8,-3.2 -0.2,-4.6 -0.7,-1 -2.2,-1.1 -3.4,-2 -3,-2.4 -1.9,-7.3 0.4,-10.1 -1.9,3.6 -0.8,10.6 4.7,10.3 0.4,-3.3 1.6,-5.8 4.4,-6.8 -0.3,1.1 -1.4,1.7 -1.9,3 -1.7,4.1 0.5,11.2 -3.4,14.2 -1.7,0.5 -2.7,1.5 -4.9,1.1 -5.9,-0.9 -6.1,-10.7 -13.4,-10.5 -1.4,0 -2.9,0.7 -3.8,1.5 -5.2,4.4 -3,14.8 3,17.7 -5.5,2.3 -4.7,9.8 -1.1,13.6 -3.1,2.4 -3.1,8.4 -0.8,11.6 -2.6,-1.7 -3.6,-4.9 -3.6,-9.2 -3.9,0.7 -7.2,3.7 -7.8,7.9 -0.3,2.6 -0.1,5.7 1.1,7.9 2.7,-0.7 3.4,-3.3 6.8,-3.3 -3.2,2.1 -6.4,6 -5.1,9.4 0.9,2.4 4.1,4.2 6.6,4 0.8,0 1.8,-0.8 2.7,-0.7 1.3,0.1 1.6,1.2 2.8,1.8 3.3,1.8 6.1,1 9.5,-0.2 -0.8,1.6 -2.9,2 -4.5,2.8 0.4,2.7 3.1,3.3 4.5,5 -3.6,-0.7 -6.4,-2.3 -7.4,-5.5 -3.4,-0.6 -7.7,-4.1 -9.9,-0.6 0.2,2.9 2.1,4.5 4.3,6.1 6.1,4.4 17.8,4.7 25.2,0 3.7,-4.9 -2.1,-8.4 -2.3,-13.4 -8,3.6 -18.2,-0.9 -20.5,-7.9 2.7,4.3 13.6,10.3 19.9,5.1 1.9,-1.5 2.6,-5.8 1.5,-9.2 -2.4,-1.1 -5.2,-2 -6.4,-4.2 7.8,4.4 20.8,2.8 29.9,-1.5 2.1,-8 -5.4,-12.7 -8,-18.2 -0.8,-1.8 -1.4,-4.7 -3.2,-4.6 -1.5,0.1 -3.4,4.2 -4.7,5.5 -3,2.8 -7.8,4.7 -12.7,4.4 -0.4,4.4 2.6,6.9 4.5,9.6 -1.4,-0.6 -2.8,-1.6 -4,-3.1 -1.6,-2 -2.1,-5 -3.6,-6.6 -1.3,-1.3 -5.6,-4.4 -6.4,-0.9 -0.2,0.9 0,3 0,3.7 0.5,5.6 3,12.2 5.3,16.6 -4.1,-2.4 -6.6,-9 -7.6,-15.5 -0.9,-5.9 0,-11.6 1.9,-16.2 1.4,6.9 4.3,10.9 10.4,11.2 3.2,0.2 5.9,-1 8.1,-2.8 2.7,-2.1 5.7,-5.9 6.6,-9.9 1.6,-7.1 -2,-15.7 -2.5,-21.9 -0.4,-4.9 1.4,-10.2 -4.4,-9.9 -2,0.1 -4.5,1.3 -7.2,1.8 -5,1.1 -8.5,2.2 -11.4,5 -1.1,1 -2.2,2.5 -3.6,4.2 -0.8,1.2 -3.3,3.6 -2.3,5.3 z m 195,22.8 c 2.7,-8.1 0.4,-18.7 -3,-23.7 -2.6,0 -1.2,4 -0.8,5.7 1.6,6 3.6,11.4 3.8,18 z M 20.8,103.9 c 3,-0.3 5.2,-2.1 7.6,-2.4 -2.4,-3.5 -3,-10.2 0.2,-13.1 -1.5,-1.1 -2.4,-3.7 -4.4,-3.3 -2.4,0.5 -3.8,9.7 -4.4,14 -0.2,2.2 -0.2,4 1,4.8 z m 201.2,3.7 c -4.1,1.3 -8.4,-0.7 -12.5,0.9 -1.7,1.5 -4.2,2.3 -5.5,4.2 4,0.1 9.1,1.8 13.1,0.2 2.4,-0.9 3.4,-3.5 4.9,-5.3 z m -15.6,8.5 c -0.4,-1.7 -2.2,-2 -3.4,-2.9 -2.7,3 -9.4,2 -12.7,2.4 -1,0.1 -2.4,0.7 -2.5,1.3 -0.2,1.2 2.4,2 4,2.2 2.4,0.3 5.3,0.2 7.6,-0.2 2.5,-0.5 5.6,-1.3 7,-2.8 z M 111,142.6 c 2.8,-1.5 7.4,-4.5 5.1,-8.7 -5.6,-1.4 -9.6,2.9 -15.3,0.9 -2.5,-0.9 -4.4,-3.5 -7.2,-2.6 -1.2,0.4 -1.9,1.4 -3.2,2.4 -1.3,0.9 -3,1.5 -3,2.8 0,2.2 5.5,3.5 7.6,3.9 5.7,1 12.1,-0.4 16,1.3 z"
                 id="path866" />
            </g>
            <path
               class="st2"
               d="M 254.5,132"
               id="path870" />
            <path
               class="st3"
               d="m 221.4,273.3 c -13.7,-0.2 -20.9,23.1 -20.9,23.1 H 37.9 C 75.7,233.7 12.5,186.4 5.4,130 -3.3,60.7 62.1,3.4 132.1,3.4 c 36.2,0 68.9,15.2 92,39.6 0,0 30.4,21.2 30.4,55.6 0,0 4.8,9.4 5.5,17.2 0.7,7.4 -2.8,13.4 -2.8,13.4 0,0 -1.5,6.8 0.4,9.5 0,0 9.7,12.3 11.6,20.2 1.8,7.9 3.7,12.3 4.8,14.8 1.1,2.6 4.4,16.3 5.3,19.8 0.9,3.5 -3.3,10.3 -8.3,10.3 -5.7,-0.1 -17.2,-0.5 -17.2,-0.5 0,0 -2.2,3.2 -1.4,6.5 0.8,2.9 4,6.4 3.5,9 -0.4,1.7 -2.4,4 -2.4,4 0,0 5.2,8.5 -1,12 -5,2.8 -7.5,6.5 -7.5,6.5 18.7,25.1 3.6,32.5 -23.6,32 z"
               id="path872" />
            <path
               class="st3"
               d="M 242.9,129.3"
               id="path874" />
            <path
               class="st4"
               d="m 254.1,203.2 c 0,0 6.7,-2.2 6.1,-4.9 -0.6,-3.1 -2.9,-3.4 -7.8,-1.4 0,0 -12.2,6.3 -14.3,1.4 -2.1,-4.9 5.5,-9.3 5.5,-9.3"
               id="path876" />
            <path
               class="st4"
               d="m 253.7,222.6 c 0,0 -8.7,-0.4 -11.2,1.7 -2.5,2.1 -7.8,3.3 -9.9,3.1"
               id="path878" />
            <path
               class="st4"
               d="m 235,221.6 c 0,0 -5.4,12.1 -9.5,14.6"
               id="path880" />
            <path
               class="st4"
               d="m 235,201.5 c 0,0 -1.8,9 -8.9,13.8 -7.1,4.8 -6.4,11.7 -6.9,14.8"
               id="path882" />
            <path
               class="st4"
               d="m 243.8,140.6 c 0,0 -22.8,4.7 -34.8,11.5"
               id="path884" />
            <path
               class="st4"
               d="m 234.4,156.6 c 0,0 -12.4,2.4 -19.4,-7.4"
               id="path886" />
            <path
               class="st4"
               d="m 232.5,156.8 c 0.8,-2.1 1.3,-4.4 1.3,-6.9 0,-2.3 -0.4,-4.6 -1.2,-6.7"
               id="path888" />
            <path
               class="st4"
               d="m 235.9,159.8 c 0,0 -3.6,5.6 -7,5.6 -3.4,0 5.5,4.1 5.5,4.1 0,0 -1,9.4 -5.2,9.4"
               id="path890" />
            <line
               class="st4"
               x1="225.89999"
               y1="176.5"
               x2="208.2"
               y2="158.8"
               id="line892" />
            <rect
               x="21.299999"
               y="40.099998"
               class="st2"
               width="383.20001"
               height="233.2"
               id="rect894" />
            <line
               class="st2"
               x1="404.5"
               y1="123.4"
               x2="203.10001"
               y2="123.4"
               id="line896" />
            <line
               class="st2"
               x1="404.5"
               y1="146.7"
               x2="234.5"
               y2="146.7"
               id="line898" />
            <line
               class="st2"
               x1="127.9"
               y1="250"
               x2="127.9"
               y2="203.39999"
               id="line900" />
            <line
               class="st2"
               x1="203.10001"
               y1="273.29999"
               x2="203.10001"
               y2="123.4"
               id="line902" />
            <line
               class="st2"
               x1="404.5"
               y1="203.39999"
               x2="127.9"
               y2="203.39999"
               id="line904" />
            <line
               class="st2"
               x1="404.5"
               y1="250"
               x2="127.9"
               y2="250"
               id="line906" />
            <line
               class="st2"
               x1="404.5"
               y1="226.7"
               x2="255.89999"
               y2="226.7"
               id="line908" />
            <line
               class="st2"
               x1="254.5"
               y1="273.29999"
               x2="261.20001"
               y2="40.099998"
               id="line910" />
          </g>
          <rect
             x="427.79999"
             y="178"
             class="st5"
             width="930.29999"
             height="112.1"
             id="rect914" />
          <g
             class="st6"
             id="g952">
            <path
               d="m 431.5,178 h 3.9 l 19.6,37 19.6,-37 h 3.9 v 40.3 h -2.6 v -36.7 h -0.1 l -19.5,36.7 h -2.6 l -19.5,-36.7 h -0.1 v 36.7 h -2.6 z"
               id="path916" />
            <path
               d="m 500,178 h 2.9 l 18.5,40.3 h -2.9 l -5.9,-13 h -22.2 l -5.9,13 h -2.9 z m -8.7,25 h 20.2 l -10.1,-22.1 z"
               id="path918" />
            <path
               d="M 537.4,197.8 520.9,178 h 3.5 l 14.7,17.8 15,-17.8 h 3.3 l -16.5,19.8 17,20.5 h -3.4 l -15.3,-18.5 -15.5,18.5 h -3.3 z"
               id="path920" />
            <path
               d="m 573.3,178 h 21 c 5.6,0 12.2,2 12.2,11.2 0,6.8 -3.8,11.4 -12.6,11.4 h -18 v 17.7 h -2.6 z m 2.6,20.3 h 17.9 c 5,0 10.1,-2 10.1,-9 0,-9 -7.3,-9 -10.7,-9 h -17.3 z"
               id="path922" />
            <path
               d="m 610.9,178 h 2.6 v 38 h 26.4 v 2.3 h -29 z"
               id="path924" />
            <path
               d="m 657.8,178 h 2.9 l 18.5,40.3 h -2.9 l -5.9,-13 h -22.2 l -5.9,13 h -2.9 z m -8.7,25 h 20.2 l -10.1,-22.1 z"
               id="path926" />
            <path
               d="m 682,178 h 3.3 l 30.1,36.7 h 0.1 V 178 h 2.6 v 40.3 h -3.3 l -30.1,-36.7 h -0.1 v 36.7 H 682 Z"
               id="path928" />
            <path
               d="m 764.3,203 c -0.9,7.7 -7.8,16.2 -19.8,16.2 -12.2,0 -21.4,-7.7 -21.4,-21 0,-9.8 6.7,-21 21.4,-21 9.7,0 17,4.5 19.1,13.5 H 761 c -2,-7.7 -8.9,-11.3 -16.5,-11.3 -11.5,0 -18.8,8.6 -18.8,18.8 0,10.1 6.5,18.8 18.8,18.8 8.9,0 15.7,-5.2 17.2,-13.9 h 2.6 z"
               id="path930" />
            <path
               d="m 769.7,178 h 2.6 v 23.1 l 29,-23.1 h 4.1 l -20.9,16.6 22.3,23.6 h -3.6 l -20.8,-22 -10.2,8.1 v 13.9 h -2.6 V 178 Z"
               id="path932" />
            <path
               d="m 821.6,178 h 2.6 v 25.3 c 0,8.6 4.1,13.7 15.2,13.7 11.1,0 15.2,-5.1 15.2,-13.7 V 178 h 2.6 v 25.4 c 0,10.4 -5.9,15.8 -17.8,15.8 -11.9,0 -17.8,-5.4 -17.8,-15.8 z"
               id="path934" />
            <path
               d="m 903.2,203 c -0.9,7.7 -7.8,16.2 -19.8,16.2 -12.2,0 -21.4,-7.7 -21.4,-21 0,-9.8 6.7,-21 21.4,-21 9.7,0 17,4.5 19.1,13.5 h -2.6 c -2,-7.7 -8.9,-11.3 -16.5,-11.3 -11.5,0 -18.8,8.6 -18.8,18.8 0,10.1 6.5,18.8 18.8,18.8 8.9,0 15.7,-5.2 17.2,-13.9 h 2.6 z"
               id="path936" />
            <path
               d="m 908.6,178 h 2.6 v 38 h 26.4 v 2.3 h -29 z"
               id="path938" />
            <path
               d="m 993,203 c -0.9,7.7 -7.8,16.2 -19.8,16.2 -12.2,0 -21.4,-7.7 -21.4,-21 0,-9.8 6.7,-21 21.4,-21 9.7,0 17,4.5 19.1,13.5 h -2.6 c -2,-7.7 -8.9,-11.3 -16.5,-11.3 -11.5,0 -18.8,8.6 -18.8,18.8 0,10.1 6.5,18.8 18.8,18.8 8.9,0 15.7,-5.2 17.2,-13.9 h 2.6 z"
               id="path940" />
            <path
               d="m 998.4,178 h 31.8 v 2.3 H 1001 v 16 h 28 v 2.3 h -28 V 216 h 29.6 v 2.3 h -32.2 z"
               id="path942" />
            <path
               d="m 1035,178 h 3.3 l 30.1,36.7 h 0.1 V 178 h 2.6 v 40.3 h -3.3 l -30.1,-36.7 h -0.1 v 36.7 h -2.6 z"
               id="path944" />
            <path
               d="m 1073.6,178 h 35.1 v 2.3 h -16.2 v 38 h -2.6 v -38 h -16.2 V 178 Z"
               id="path946" />
            <path
               d="m 1111.2,178 h 20.6 c 7.7,0 13.6,2.3 13.6,10.7 0,4.3 -2.5,8.6 -8.2,10 v 0.1 c 5,0.6 7.5,4 7.6,8.3 0.2,7.4 0.4,9.6 1.1,11.2 h -2.6 c -0.7,-0.7 -1,-3.2 -1.1,-9.4 -0.2,-7 -2.4,-9 -10.4,-9 h -17.9 v 18.3 h -2.6 V 178 Z m 2.6,19.7 h 17.5 c 2.5,0 11.5,0 11.5,-9.2 0,-6.5 -5.1,-8.2 -10.8,-8.2 h -18.2 z"
               id="path948" />
            <path
               d="m 1151,178 h 31.8 v 2.3 h -29.2 v 16 h 28 v 2.3 h -28 V 216 h 29.6 v 2.3 H 1151 Z"
               id="path950" />
          </g>
          <g
             class="st6"
             id="g1040">
            <path
               d="m 438.8,253.9 h -4.3 v 19.6 h -2.7 v -19.6 h -3.7 v -2.2 h 3.7 v -2 c 0,-3.8 1,-6.4 5.3,-6.4 0.8,0 1.4,0 2.2,0.2 v 2.3 c -0.7,-0.1 -1.3,-0.2 -1.9,-0.2 -2.9,0 -2.9,1.9 -2.9,4.2 v 1.9 h 4.3 z"
               id="path954" />
            <path
               d="m 460.9,262.6 c 0,6.3 -3.7,11.5 -10.3,11.5 -6.6,0 -10.3,-5.3 -10.3,-11.5 0,-6.3 3.7,-11.5 10.3,-11.5 6.6,0 10.3,5.3 10.3,11.5 z m -18,0 c 0,4.6 2.6,9.3 7.7,9.3 5.1,0 7.7,-4.7 7.7,-9.3 0,-4.6 -2.6,-9.3 -7.7,-9.3 -5.1,0 -7.7,4.7 -7.7,9.3 z"
               id="path956" />
            <path
               d="m 464.8,251.7 h 2.5 v 5.1 h 0.1 c 1.4,-3.6 4.3,-5.6 8.2,-5.4 v 2.7 c -4.8,-0.2 -8.1,3.3 -8.1,7.8 v 11.6 h -2.7 z"
               id="path958" />
            <path
               d="m 512.5,252.5 c -1,-4.7 -4.9,-7.3 -9.3,-7.3 -8,0 -11.4,6.7 -11.4,13.3 0,6.6 3.4,13.3 11.4,13.3 5.6,0 9.1,-4.3 9.7,-9.7 h 2.9 c -0.8,7.4 -5.5,12.1 -12.6,12.1 -9.5,0 -14.3,-7.4 -14.3,-15.7 0,-8.3 4.7,-15.7 14.3,-15.7 5.8,0 11.3,3.5 12.1,9.8 h -2.8 z"
               id="path960" />
            <path
               d="m 539.3,262.6 c 0,6.3 -3.7,11.5 -10.3,11.5 -6.6,0 -10.3,-5.3 -10.3,-11.5 0,-6.3 3.7,-11.5 10.3,-11.5 6.6,0 10.3,5.3 10.3,11.5 z m -18,0 c 0,4.6 2.6,9.3 7.7,9.3 5.1,0 7.7,-4.7 7.7,-9.3 0,-4.6 -2.6,-9.3 -7.7,-9.3 -5.1,0 -7.7,4.7 -7.7,9.3 z"
               id="path962" />
            <path
               d="m 543.2,251.7 h 2.5 v 3.7 h 0.1 c 1.4,-2.7 3.6,-4.3 7.1,-4.3 2.9,0 5.5,1.4 6.3,4.3 1.3,-2.9 4.1,-4.3 6.9,-4.3 4.8,0 7.2,2.5 7.2,7.7 v 14.8 h -2.7 v -14.7 c 0,-3.6 -1.3,-5.5 -5.2,-5.5 -4.6,0 -5.9,3.8 -5.9,7.9 v 12.4 H 557 v -14.8 c 0,-3 -1.1,-5.4 -4.6,-5.4 -4.6,0 -6.5,3.5 -6.5,8 v 12.2 h -2.7 z"
               id="path964" />
            <path
               d="m 578.5,251.7 h 2.5 v 4.1 h 0.1 c 1.2,-3 4.2,-4.8 7.8,-4.8 6.6,0 9.8,5.3 9.8,11.5 0,6.2 -3.2,11.5 -9.8,11.5 -3.2,0 -6.4,-1.6 -7.6,-4.8 h -0.1 v 12.2 h -2.7 z m 10.3,1.6 c -5.9,0 -7.7,4.4 -7.7,9.3 0,4.5 2,9.3 7.7,9.3 5.1,0 7.1,-4.8 7.1,-9.3 0,-4.5 -2,-9.3 -7.1,-9.3 z"
               id="path966" />
            <path
               d="M 620.5,273.5 H 618 v -3.9 h -0.1 c -1.4,2.9 -4.3,4.6 -7.5,4.6 -5.5,0 -7.7,-3.2 -7.7,-8.3 v -14.2 h 2.7 v 14.2 c 0.1,3.9 1.6,6 5.8,6 4.6,0 6.6,-4.3 6.6,-8.8 v -11.5 h 2.7 z"
               id="path968" />
            <path
               d="m 629.7,251.7 h 4.4 v 2.2 h -4.4 v 14.7 c 0,1.7 0.3,2.7 2.2,2.9 0.8,0 1.5,0 2.3,-0.1 v 2.3 c -0.8,0 -1.6,0.1 -2.4,0.1 -3.6,0 -4.8,-1.2 -4.7,-4.9 V 254 h -3.8 v -2.2 h 3.8 v -6.6 h 2.7 v 6.5 z"
               id="path970" />
            <path
               d="m 637.8,258.4 c 0.3,-5.1 3.8,-7.3 8.8,-7.3 3.9,0 8,1.1 8,7 v 11.6 c 0,1.1 0.5,1.6 1.6,1.6 0.3,0 0.6,0 0.8,-0.2 v 2.2 c -0.6,0.1 -1,0.2 -1.7,0.2 -2.7,0 -3.1,-1.6 -3.1,-3.8 h -0.1 c -1.9,2.8 -3.7,4.4 -8,4.4 -4.1,0 -7.3,-2 -7.3,-6.4 0,-6.1 6,-6.3 11.7,-7 2.2,-0.2 3.4,-0.6 3.4,-3 0,-3.6 -2.5,-4.5 -5.7,-4.5 -3.3,0 -5.7,1.5 -5.8,5.1 h -2.6 z m 14.2,3.2 v 0 c -0.4,0.6 -1.6,0.8 -2.3,1 -4.5,0.8 -10.2,0.8 -10.2,5 0,2.7 2.3,4.3 4.9,4.3 4.1,0 7.6,-2.6 7.6,-6.9 z"
               id="path972" />
            <path
               d="m 664.2,251.7 h 4.4 v 2.2 h -4.4 v 14.7 c 0,1.7 0.3,2.7 2.2,2.9 0.8,0 1.5,0 2.3,-0.1 v 2.3 c -0.8,0 -1.6,0.1 -2.4,0.1 -3.6,0 -4.8,-1.2 -4.7,-4.9 V 254 h -3.8 v -2.2 h 3.8 v -6.6 h 2.7 v 6.5 z"
               id="path974" />
            <path
               d="m 672.6,243.3 h 2.7 v 4.3 h -2.7 z m 0,8.4 h 2.7 v 21.8 h -2.7 z"
               id="path976" />
            <path
               d="m 699.9,262.6 c 0,6.3 -3.7,11.5 -10.3,11.5 -6.6,0 -10.3,-5.3 -10.3,-11.5 0,-6.3 3.7,-11.5 10.3,-11.5 6.6,0 10.3,5.3 10.3,11.5 z m -18,0 c 0,4.6 2.6,9.3 7.7,9.3 5.1,0 7.7,-4.7 7.7,-9.3 0,-4.6 -2.6,-9.3 -7.7,-9.3 -5.1,0 -7.7,4.7 -7.7,9.3 z"
               id="path978" />
            <path
               d="m 703.8,251.7 h 2.7 v 3.8 h 0.1 c 1,-2.6 3.9,-4.4 7,-4.4 6.1,0 8,3.2 8,8.4 v 14 h -2.7 v -13.6 c 0,-3.7 -1.2,-6.6 -5.5,-6.6 -4.3,0 -6.7,3.2 -6.9,7.5 v 12.7 h -2.7 z"
               id="path980" />
            <path
               d="m 726.4,258.4 c 0.3,-5.1 3.8,-7.3 8.8,-7.3 3.9,0 8,1.1 8,7 v 11.6 c 0,1.1 0.5,1.6 1.6,1.6 0.3,0 0.6,0 0.8,-0.2 v 2.2 c -0.6,0.1 -1,0.2 -1.7,0.2 -2.7,0 -3.1,-1.6 -3.1,-3.8 h -0.1 c -1.9,2.8 -3.7,4.4 -8,4.4 -4.1,0 -7.3,-2 -7.3,-6.4 0,-6.1 6,-6.3 11.7,-7 2.2,-0.2 3.4,-0.6 3.4,-3 0,-3.6 -2.5,-4.5 -5.7,-4.5 -3.3,0 -5.7,1.5 -5.8,5.1 h -2.6 z m 14.2,3.2 v 0 c -0.4,0.6 -1.6,0.8 -2.3,1 -4.5,0.8 -10.2,0.8 -10.2,5 0,2.7 2.3,4.3 4.9,4.3 4.1,0 7.6,-2.6 7.6,-6.9 z"
               id="path982" />
            <path
               d="m 748.6,243.3 h 2.7 v 30.2 h -2.7 z"
               id="path984" />
            <path
               d="m 768.7,243.3 h 13.4 c 5.4,0 9,3.2 9,8.6 0,5.5 -3.6,8.6 -9,8.6 h -10.5 v 12.9 h -2.9 z m 2.8,14.8 h 9.9 c 4,0 6.7,-2 6.7,-6.2 0,-4.2 -2.7,-6.2 -6.7,-6.2 h -9.9 z"
               id="path986" />
            <path
               d="m 807.9,258.1 c -0.1,-3.3 -2.7,-4.8 -5.7,-4.8 -2.4,0 -5.2,0.9 -5.2,3.8 0,2.3 2.7,3.2 4.5,3.7 l 3.6,0.8 c 3,0.5 6.2,2.2 6.2,6 0,4.7 -4.7,6.6 -8.8,6.6 -5.1,0 -8.5,-2.3 -9,-7.7 h 2.7 c 0.2,3.6 2.9,5.5 6.4,5.5 2.5,0 6,-1.1 6,-4.1 0,-2.5 -2.4,-3.4 -4.8,-4 l -3.4,-0.8 c -3.5,-0.9 -6.1,-2.2 -6.1,-5.8 0,-4.4 4.4,-6.1 8.2,-6.1 4.4,0 7.8,2.3 8,7 h -2.6 z"
               id="path988" />
            <path
               d="m 812.7,251.7 h 2.8 l 7.2,18.6 6.7,-18.6 h 2.7 l -9.5,25.2 c -1.6,3.7 -2.4,4.7 -5.8,4.7 -1.1,0 -1.6,0 -2,-0.2 v -2.2 c 0.6,0.1 1.2,0.2 1.8,0.2 2.4,0 2.9,-1.4 3.8,-3.4 l 0.9,-2.5 z"
               id="path990" />
            <path
               d="m 850.2,258.6 c -0.7,-3.3 -2.7,-5.2 -6.2,-5.2 -5.1,0 -7.7,4.7 -7.7,9.3 0,4.6 2.6,9.3 7.7,9.3 3.3,0 6,-2.6 6.3,-6.2 h 2.7 c -0.7,5.3 -4.1,8.5 -9,8.5 -6.6,0 -10.3,-5.3 -10.3,-11.5 0,-6.3 3.7,-11.5 10.3,-11.5 4.7,0 8.2,2.5 8.8,7.5 h -2.6 z"
               id="path992" />
            <path
               d="m 856.7,243.3 h 2.7 v 12.1 h 0.1 c 1,-2.6 3.9,-4.4 7,-4.4 6.1,0 8,3.2 8,8.4 v 14 h -2.7 v -13.6 c 0,-3.7 -1.2,-6.6 -5.5,-6.6 -4.3,0 -6.7,3.2 -6.9,7.5 v 12.7 h -2.7 z"
               id="path994" />
            <path
               d="m 879.5,243.3 h 2.7 v 4.3 h -2.7 z m 0,8.4 h 2.7 v 21.8 h -2.7 z"
               id="path996" />
            <path
               d="m 887,258.4 c 0.3,-5.1 3.8,-7.3 8.8,-7.3 3.9,0 8,1.1 8,7 v 11.6 c 0,1.1 0.5,1.6 1.6,1.6 0.3,0 0.6,0 0.8,-0.2 v 2.2 c -0.6,0.1 -1,0.2 -1.7,0.2 -2.7,0 -3.1,-1.6 -3.1,-3.8 h -0.1 c -1.9,2.8 -3.7,4.4 -8,4.4 -4.1,0 -7.3,-2 -7.3,-6.4 0,-6.1 6,-6.3 11.7,-7 2.2,-0.2 3.4,-0.6 3.4,-3 0,-3.6 -2.5,-4.5 -5.7,-4.5 -3.3,0 -5.7,1.5 -5.8,5.1 H 887 Z m 14.2,3.2 v 0 c -0.4,0.6 -1.6,0.8 -2.3,1 -4.5,0.8 -10.2,0.8 -10.2,5 0,2.7 2.3,4.3 4.9,4.3 4.1,0 7.6,-2.6 7.6,-6.9 z"
               id="path998" />
            <path
               d="m 913.5,251.7 h 4.4 v 2.2 h -4.4 v 14.7 c 0,1.7 0.3,2.7 2.2,2.9 0.8,0 1.5,0 2.3,-0.1 v 2.3 c -0.8,0 -1.6,0.1 -2.4,0.1 -3.6,0 -4.8,-1.2 -4.7,-4.9 V 254 H 907 v -2.2 h 3.8 v -6.6 h 2.7 z"
               id="path1000" />
            <path
               d="m 921.8,251.7 h 2.5 v 5.1 h 0.1 c 1.4,-3.6 4.3,-5.6 8.2,-5.4 v 2.7 c -4.8,-0.2 -8.1,3.3 -8.1,7.8 v 11.6 h -2.7 z"
               id="path1002" />
            <path
               d="m 932.6,251.7 h 2.8 l 7.2,18.6 6.7,-18.6 h 2.7 l -9.5,25.2 c -1.6,3.7 -2.4,4.7 -5.8,4.7 -1.1,0 -1.6,0 -2,-0.2 v -2.2 c 0.6,0.1 1.2,0.2 1.8,0.2 2.4,0 2.9,-1.4 3.8,-3.4 l 0.9,-2.5 z"
               id="path1004" />
            <path
               d="m 966.2,258.4 c 0.3,-5.1 3.8,-7.3 8.8,-7.3 3.9,0 8,1.1 8,7 v 11.6 c 0,1.1 0.5,1.6 1.6,1.6 0.3,0 0.6,0 0.8,-0.2 v 2.2 c -0.6,0.1 -1,0.2 -1.7,0.2 -2.7,0 -3.1,-1.6 -3.1,-3.8 h -0.1 c -1.9,2.8 -3.7,4.4 -8,4.4 -4.1,0 -7.3,-2 -7.3,-6.4 0,-6.1 6,-6.3 11.7,-7 2.2,-0.2 3.4,-0.6 3.4,-3 0,-3.6 -2.5,-4.5 -5.7,-4.5 -3.3,0 -5.7,1.5 -5.8,5.1 h -2.6 z m 14.2,3.2 v 0 c -0.4,0.6 -1.6,0.8 -2.3,1 -4.5,0.8 -10.2,0.8 -10.2,5 0,2.7 2.3,4.3 4.9,4.3 4.1,0 7.6,-2.6 7.6,-6.9 z"
               id="path1006" />
            <path
               d="m 988.4,251.7 h 2.7 v 3.8 h 0.1 c 1,-2.6 3.9,-4.4 7,-4.4 6.1,0 8,3.2 8,8.4 v 14 h -2.7 v -13.6 c 0,-3.7 -1.2,-6.6 -5.5,-6.6 -4.3,0 -6.7,3.2 -6.9,7.5 v 12.7 h -2.7 z"
               id="path1008" />
            <path
               d="m 1030.3,273.5 h -2.5 v -4.1 h -0.1 c -1.1,2.9 -4.6,4.8 -7.8,4.8 -6.6,0 -9.8,-5.3 -9.8,-11.5 0,-6.2 3.2,-11.5 9.8,-11.5 3.2,0 6.5,1.7 7.6,4.8 h 0.1 v -12.5 h 2.7 z m -10.3,-1.6 c 5.6,0 7.7,-4.8 7.7,-9.3 0,-4.5 -2,-9.3 -7.7,-9.3 -5.1,0 -7.1,4.8 -7.1,9.3 0,4.5 2,9.3 7.1,9.3 z"
               id="path1010" />
            <path
               d="m 1056.5,243.3 h 3.2 l 11.8,30.2 h -3.1 l -3.7,-9.4 H 1051 l -3.6,9.4 h -3.1 z m -4.5,18.4 h 11.9 l -5.8,-15.5 z"
               id="path1012" />
            <path
               d="m 1092.3,271.8 c 0,6.6 -2.6,10.5 -9.7,10.5 -4.4,0 -8.7,-2 -9,-6.6 h 2.7 c 0.6,3.2 3.5,4.4 6.4,4.4 5,0 7,-2.9 7,-8.2 v -3 h -0.1 c -1.2,2.7 -3.8,4.5 -6.9,4.5 -7,0 -9.9,-5 -9.9,-11.2 0,-6 3.6,-11 9.9,-11 3.2,0 5.9,2 6.9,4.4 h 0.1 v -3.8 h 2.7 v 20 z m -2.7,-9.4 c 0,-4.3 -1.9,-9 -7,-9 -5.1,0 -7.2,4.5 -7.2,9 0,4.4 2.2,8.7 7.2,8.7 4.6,-0.1 7,-4.3 7,-8.7 z"
               id="path1014" />
            <path
               d="m 1098.9,263.3 c 0,3.9 2.1,8.6 7.2,8.6 3.9,0 6,-2.2 6.9,-5.6 h 2.7 c -1.1,4.9 -4,7.8 -9.5,7.8 -6.9,0 -9.9,-5.3 -9.9,-11.5 0,-5.8 2.9,-11.5 9.9,-11.5 7,0 9.8,6.1 9.6,12.3 h -16.9 z m 14.2,-2.2 c -0.1,-4 -2.7,-7.8 -6.9,-7.8 -4.4,0 -6.7,3.8 -7.2,7.8 z"
               id="path1016" />
            <path
               d="m 1119.4,243.3 h 2.7 v 4.3 h -2.7 z m 0,8.4 h 2.7 v 21.8 h -2.7 z"
               id="path1018" />
            <path
               d="m 1127.1,251.7 h 2.7 v 3.8 h 0.1 c 1,-2.6 3.9,-4.4 7,-4.4 6.1,0 8,3.2 8,8.4 v 14 h -2.7 v -13.6 c 0,-3.7 -1.2,-6.6 -5.5,-6.6 -4.3,0 -6.7,3.2 -6.9,7.5 v 12.7 h -2.7 z"
               id="path1020" />
            <path
               d="m 1168.3,271.8 c 0,6.6 -2.6,10.5 -9.7,10.5 -4.4,0 -8.7,-2 -9,-6.6 h 2.7 c 0.6,3.2 3.5,4.4 6.4,4.4 5,0 7,-2.9 7,-8.2 v -3 h -0.1 c -1.2,2.7 -3.8,4.5 -6.9,4.5 -7,0 -9.9,-5 -9.9,-11.2 0,-6 3.6,-11 9.9,-11 3.2,0 5.9,2 6.9,4.4 h 0.1 v -3.8 h 2.7 v 20 z m -2.6,-9.4 c 0,-4.3 -1.9,-9 -7,-9 -5.1,0 -7.2,4.5 -7.2,9 0,4.4 2.2,8.7 7.2,8.7 4.6,-0.1 7,-4.3 7,-8.7 z"
               id="path1022" />
            <path
               d="m 1185.7,243.3 h 13.8 c 4.9,0 9.2,2.4 9.2,7.9 0,3.8 -2,6.9 -5.9,7.7 v 0.1 c 3.9,0.6 5.1,3.2 5.3,6.8 0.1,2.1 0.1,6.3 1.4,7.7 h -3.2 c -0.7,-1.1 -0.7,-3.4 -0.8,-4.7 -0.2,-4.2 -0.6,-8.9 -6,-8.7 h -10.9 v 13.4 h -2.9 z m 2.9,14.4 h 10.7 c 3.5,0 6.5,-2.2 6.5,-5.9 0,-3.7 -2.2,-6 -6.5,-6 h -10.7 z"
               id="path1024" />
            <path
               d="m 1215,263.3 c 0,3.9 2.1,8.6 7.2,8.6 3.9,0 6,-2.2 6.9,-5.6 h 2.7 c -1.1,4.9 -4,7.8 -9.5,7.8 -6.9,0 -9.9,-5.3 -9.9,-11.5 0,-5.8 2.9,-11.5 9.9,-11.5 7,0 9.8,6.1 9.6,12.3 H 1215 Z m 14.1,-2.2 c -0.1,-4 -2.7,-7.8 -6.9,-7.8 -4.4,0 -6.7,3.8 -7.2,7.8 z"
               id="path1026" />
            <path
               d="m 1248.4,258.1 c -0.1,-3.3 -2.7,-4.8 -5.7,-4.8 -2.4,0 -5.2,0.9 -5.2,3.8 0,2.3 2.7,3.2 4.5,3.7 l 3.6,0.8 c 3,0.5 6.2,2.2 6.2,6 0,4.7 -4.7,6.6 -8.8,6.6 -5.1,0 -8.5,-2.3 -9,-7.7 h 2.7 c 0.2,3.6 2.9,5.5 6.4,5.5 2.5,0 6,-1.1 6,-4.1 0,-2.5 -2.4,-3.4 -4.8,-4 l -3.4,-0.8 c -3.5,-0.9 -6.1,-2.2 -6.1,-5.8 0,-4.4 4.4,-6.1 8.2,-6.1 4.4,0 7.8,2.3 8,7 h -2.6 z"
               id="path1028" />
            <path
               d="m 1257.3,263.3 c 0,3.9 2.1,8.6 7.2,8.6 3.9,0 6,-2.2 6.9,-5.6 h 2.7 c -1.1,4.9 -4,7.8 -9.5,7.8 -6.9,0 -9.9,-5.3 -9.9,-11.5 0,-5.8 2.9,-11.5 9.9,-11.5 7,0 9.8,6.1 9.6,12.3 h -16.9 z m 14.1,-2.2 c -0.1,-4 -2.7,-7.8 -6.9,-7.8 -4.4,0 -6.7,3.8 -7.2,7.8 z"
               id="path1030" />
            <path
               d="m 1277.4,258.4 c 0.3,-5.1 3.8,-7.3 8.8,-7.3 3.9,0 8,1.1 8,7 v 11.6 c 0,1.1 0.5,1.6 1.6,1.6 0.3,0 0.6,0 0.8,-0.2 v 2.2 c -0.6,0.1 -1,0.2 -1.7,0.2 -2.7,0 -3.1,-1.6 -3.1,-3.8 h -0.1 c -1.9,2.8 -3.7,4.4 -8,4.4 -4.1,0 -7.3,-2 -7.3,-6.4 0,-6.1 6,-6.3 11.7,-7 2.2,-0.2 3.4,-0.6 3.4,-3 0,-3.6 -2.5,-4.5 -5.7,-4.5 -3.3,0 -5.7,1.5 -5.8,5.1 h -2.6 z m 14.2,3.2 v 0 c -0.4,0.6 -1.6,0.8 -2.3,1 -4.5,0.8 -10.2,0.8 -10.2,5 0,2.7 2.3,4.3 4.9,4.3 4.1,0 7.6,-2.6 7.6,-6.9 z"
               id="path1032" />
            <path
               d="m 1299.7,251.7 h 2.5 v 5.1 h 0.1 c 1.4,-3.6 4.3,-5.6 8.2,-5.4 v 2.7 c -4.8,-0.2 -8.1,3.3 -8.1,7.8 v 11.6 h -2.7 z"
               id="path1034" />
            <path
               d="m 1327.6,258.6 c -0.7,-3.3 -2.7,-5.2 -6.2,-5.2 -5.1,0 -7.7,4.7 -7.7,9.3 0,4.6 2.6,9.3 7.7,9.3 3.3,0 6,-2.6 6.3,-6.2 h 2.7 c -0.7,5.3 -4.1,8.5 -9,8.5 -6.6,0 -10.3,-5.3 -10.3,-11.5 0,-6.3 3.7,-11.5 10.3,-11.5 4.7,0 8.2,2.5 8.8,7.5 h -2.6 z"
               id="path1036" />
            <path
               d="m 1334.1,243.3 h 2.7 v 12.1 h 0.1 c 1,-2.6 3.9,-4.4 7,-4.4 6.1,0 8,3.2 8,8.4 v 14 h -2.7 v -13.6 c 0,-3.7 -1.2,-6.6 -5.5,-6.6 -4.3,0 -6.7,3.2 -6.9,7.5 v 12.7 h -2.7 z"
               id="path1038" />
          </g>
        </g>
      </g>
    </g>
  </g>
</svg>
