<?xml version="1.0" encoding="UTF-8"?><svg id="uuid-17ebadce-f9b7-4fbf-bbb0-392f6210b9da" xmlns="http://www.w3.org/2000/svg" xmlns:xlink="http://www.w3.org/1999/xlink" viewBox="0 0 846.66 726"><defs><linearGradient id="uuid-85d79672-a787-4da8-8b34-60cfec3bda28" x1="61.63" y1="499.95" x2="88.95" y2="492.44" gradientTransform="translate(174.32 4.28) rotate(20.01)" gradientUnits="userSpaceOnUse"><stop offset="0" stop-color="#787878"/><stop offset=".2" stop-color="#4e4e4e"/><stop offset="1" stop-color="#000"/></linearGradient><linearGradient id="uuid-6ae09885-9290-4592-8486-fb16f899afa0" x1="94.04" y1="461.3" x2="122.38" y2="461.3" gradientTransform="translate(164.36 -9.18) rotate(20.01)" xlink:href="#uuid-85d79672-a787-4da8-8b34-60cfec3bda28"/></defs><g id="uuid-54d4c7ab-fbcd-42d9-a052-c3fed31e886a"><path d="M185.62,619.1s83.29,32.51,92,35c7,2-11.31,80.41-75.83,70.55-1.88-.29-3.68-.96-5.29-1.96-2.03-1.26-4.2-2.78-4.88-6.59-5-28-6-97-6-97Z" fill="#dc8f97" stroke-width="0"/><path d="M190.62,626.1l3,91c5.94-15.38,10.76-31.17,12.88-47.96,3.26-42.47-12.88-42.04-15.88-43.04Z" fill="#fff" opacity=".4" stroke="#feb1b9" stroke-miterlimit="10"/><ellipse cx="75.01" cy="496.27" rx="13.08" ry="20.58" transform="translate(-165.26 55.61) rotate(-20.01)" fill="url(#uuid-85d79672-a787-4da8-8b34-60cfec3bda28)" stroke-width="0"/><path d="M181.12,79.6c30.5-3.5,70,28,70,28,110.34-24.16,210.85-44.45,315-52,4.37-5.87,49.38-49.48,74-54,65.7-12.06,102,97,99,119,32.5,33.5,107.5,110.5,99,232-14,165-145.5,259.5-269,283-70.34,13.38-156.67,29.97-256,22-160.39-15.12-252.98-128.57-265.33-261.61-.12-1.26-.08-2.52-.17-3.78-4.5-67.61,29.5-176.61,65.5-202.61-2-18,14.9-99.65,68-110Z" fill="#feb1bb" stroke-width="0"/><path d="M265.12,168.6c38.1-1.89,303.34-37.64,342-55,14.85-6.67,65.34-108.83,64-109-28.18-10.56-52.9-3.25-105,51-103.5,7.37-204.03,28.04-315,52,0,0-38.91-31.66-69.41-28.16-3.59-.84-27.59,10.16-28.59,14.16,14.43,17.12,90.77,76.05,112,75Z" fill="#fff" opacity=".2" stroke-width="0"/><path d="M684.52,240.68c-49.41,1.41-102.85,35.06-110.87,41.73-14.57,12.13-26.41,21.99-26.45,34.1-.09,27.32,59.96,46.06,112.49,43.76,14.3-.62,71.02-3.1,95.4-32.24,22.18-26.52,4.33-59.31-23.22-74.92-18.34-10.39-38.92-12.67-47.35-12.43Z" fill="#fff" opacity=".1" stroke-width="0"/><path d="M164.08,318.82c-17.98,17.66-15.14,41.95-1.51,55.29,28.06,27.44,108.99,15.54,125.04-11,12-19.84-10.13-51.39-45.84-59.94-21.42-5.13-57.39-4.29-77.69,15.65Z" fill="#fff" opacity=".1" stroke-width="0"/><path d="M417.12,646.6l-9.21,11.9c59.75-3.61,113.36-13.87,159.95-22.74,3.01-.57,6.03-1.2,9.05-1.86l-10.05-9.14c-47,10-110.74,18.84-149.74,21.84Z" stroke-width="0"/><path d="M56.95,338.6H21.12c28.9,29.26,35.05,155.93,15.99,156,.75.24,1.52.41,2.31.48,11.34,1.02,22.13-.98,33.19-1.98,30.5-42.5,3.27-153.61-15.66-154.5Z" fill="#f89ba5" stroke-width="0"/><path d="M21.12,338.6c-27.06,17.25-4.86,125.17,10.01,151.16,1.33,2.33,3.48,4.03,5.98,4.84,19.06-.07,12.9-126.75-15.99-156Z" fill="#febbc2" stroke-width="0"/><path d="M56.8,338.6H20.96c6.2,6.27,11.35,17.03,15.43,30.05,13.73,1.95,22.73,2.95,38.62-2.24-5.53-16.43-12.28-27.53-18.21-27.81Z" fill="#fff" opacity=".1" stroke-width="0"/><ellipse cx="32.62" cy="415.1" rx="6.5" ry="23.5" transform="translate(-37.96 4.75) rotate(-5.27)" opacity=".2" stroke-width="0"/><ellipse cx="18.21" cy="427.22" rx="1.77" ry="17.57" transform="translate(-74.36 9.75) rotate(-10.06)" opacity=".2" stroke-width="0"/><path d="M245.62,520.1c4-6,6.47-6.05,14-4,16.31,4.44,49,21,61,33,36.66,36.66-2.6,112.41-22,117-7.45,2.79-27.87,3.85-39.53,2.38-2.07-.26-3.98-1.25-5.33-2.84-10.33-12.14-29.67-61.67-27.14-66.53,2.21-4.27,11.65-6.85,18.4-13.17,1.66-1.56,2.7-3.67,2.91-5.94,3.54-38.38-8.03-49.82-2.31-59.89Z" fill="#f89ba5" stroke-width="0"/><path d="M232.62,601.1l21,57c14.48-21.75-4-136.15-4-136.15,0,0,18,71.15-17,79.15Z" fill="#fff" opacity=".35" stroke-width="0"/><ellipse cx="108.21" cy="461.3" rx="13.08" ry="20.58" transform="translate(-151.3 64.86) rotate(-20.01)" fill="url(#uuid-6ae09885-9290-4592-8486-fb16f899afa0)" stroke-width="0"/></g></svg>